<svg version="1.1" viewBox="0.0 0.0 748.1207349081365 334.0603674540682" fill="none" stroke="none" stroke-linecap="square" stroke-miterlimit="10" xmlns:xlink="http://www.w3.org/1999/xlink" xmlns="http://www.w3.org/2000/svg"><clipPath id="p.0"><path d="m0 0l748.1207 0l0 334.06036l-748.1207 0l0 -334.06036z" clip-rule="nonzero"/></clipPath><g clip-path="url(#p.0)"><path fill="#000000" fill-opacity="0.0" d="m0 0l748.1207 0l0 334.06036l-748.1207 0z" fill-rule="evenodd"/><path fill="#ff9900" d="m0 54.746502l0 0c0 -30.235659 24.510843 -54.746502 54.746502 -54.746502l633.5306 0c14.519714 0 28.444702 5.7679186 38.71167 16.03488c10.266907 10.26696 16.034851 24.191946 16.034851 38.711624l0 218.97945c0 30.235657 -24.510864 54.74649 -54.74652 54.74649l-633.5306 0c-30.235659 0 -54.746502 -24.510834 -54.746502 -54.74649z" fill-rule="evenodd"/><path stroke="#ff9900" stroke-width="4.0" stroke-linejoin="round" stroke-linecap="butt" d="m0 54.746502l0 0c0 -30.235659 24.510843 -54.746502 54.746502 -54.746502l633.5306 0c14.519714 0 28.444702 5.7679186 38.71167 16.03488c10.266907 10.26696 16.034851 24.191946 16.034851 38.711624l0 218.97945c0 30.235657 -24.510864 54.74649 -54.74652 54.74649l-633.5306 0c-30.235659 0 -54.746502 -24.510834 -54.746502 -54.74649z" fill-rule="evenodd"/><path fill="#000000" fill-opacity="0.0" d="m98.173225 106.062996l546.6772 0l0 116.34646l-546.6772 0z" fill-rule="evenodd"/><path fill="#ffffff" d="m146.5001 191.86299l-22.187508 -57.265625l8.203133 0l14.875 41.59375q1.796875 5.0 3.015625 9.375q1.328125 -4.6875 3.078125 -9.375l15.46875 -41.59375l7.734375 0l-22.421875 57.265625l-7.765625 0zm34.679688 -49.1875l0 -8.078125l7.03125 0l0 8.078125l-7.03125 0zm0 49.1875l0 -41.484375l7.03125 0l0 41.484375l-7.03125 0zm14.9296875 -12.390625l6.953125 -1.09375q0.578125 4.1875 3.25 6.421875q2.6875 2.21875 7.484375 2.21875q4.84375 0 7.1875 -1.96875q2.34375 -1.984375 2.34375 -4.640625q0 -2.375 -2.0625 -3.75q-1.453125 -0.9375 -7.1875 -2.375q-7.734375 -1.953125 -10.734375 -3.375q-2.984375 -1.4375 -4.53125 -3.953125q-1.53125 -2.515625 -1.53125 -5.5625q0 -2.78125 1.265625 -5.140625q1.265625 -2.359375 3.453125 -3.921875q1.640625 -1.21875 4.46875 -2.046875q2.84375 -0.84375 6.078125 -0.84375q4.890625 0 8.578125 1.40625q3.6875 1.40625 5.4375 3.8125q1.765625 2.390625 2.4375 6.421875l-6.875 0.9375q-0.46875 -3.203125 -2.71875 -5.0q-2.25 -1.796875 -6.34375 -1.796875q-4.84375 0 -6.921875 1.609375q-2.0625 1.59375 -2.0625 3.734375q0 1.375 0.859375 2.46875q0.859375 1.125 2.6875 1.875q1.0625 0.390625 6.21875 1.796875q7.453125 1.984375 10.40625 3.265625q2.953125 1.265625 4.625 3.6875q1.6875 2.421875 1.6875 6.015625q0 3.515625 -2.0625 6.625q-2.046875 3.09375 -5.921875 4.796875q-3.859375 1.703125 -8.734375 1.703125q-8.09375 0 -12.328125 -3.359375q-4.234375 -3.359375 -5.40625 -9.96875zm42.84375 -36.796875l0 -8.078125l7.03125 0l0 8.078125l-7.03125 0zm0 49.1875l0 -41.484375l7.03125 0l0 41.484375l-7.03125 0zm33.085922 -6.296875l1.015625 6.21875q-2.96875 0.625 -5.3125 0.625q-3.828125 0 -5.9375 -1.203125q-2.109375 -1.21875 -2.96875 -3.1875q-0.859375 -1.984375 -0.859375 -8.3125l0 -23.859375l-5.1562347 0l0 -5.46875l5.1562347 0l0 -10.28125l7.0 -4.21875l0 14.5l7.0625 0l0 5.46875l-7.0625 0l0 24.25q0 3.015625 0.359375 3.875q0.375 0.859375 1.21875 1.375q0.84375 0.5 2.40625 0.5q1.171875 0 3.078125 -0.28125zm40.0 6.296875l-15.1875 -57.265625l7.765625 0l8.71875 37.53125q1.40625 5.90625 2.421875 11.71875q2.1875 -9.171875 2.578125 -10.578125l10.890625 -38.671875l9.140625 0l8.203125 28.984375q3.09375 10.78125 4.453125 20.265625q1.09375 -5.421875 2.859375 -12.453125l8.984375 -36.796875l7.609375 0l-15.703125 57.265625l-7.296875 0l-12.078125 -43.640625q-1.515625 -5.46875 -1.796875 -6.71875q-0.890625 3.953125 -1.671875 6.71875l-12.15625 43.640625l-7.734375 0zm91.5625 -13.359375l7.265625 0.890625q-1.71875 6.375 -6.375 9.890625q-4.640625 3.515625 -11.859375 3.515625q-9.109375 0 -14.4375 -5.609375q-5.328125 -5.609375 -5.328125 -15.71875q0 -10.46875 5.390625 -16.25q5.390625 -5.78125 13.984375 -5.78125q8.3125 0 13.578125 5.671875q5.28125 5.65625 5.28125 15.921875q0 0.625 -0.03125 1.875l-30.9375 0q0.390625 6.84375 3.859375 10.484375q3.484375 3.625 8.671875 3.625q3.875 0 6.609375 -2.03125q2.734375 -2.03125 4.328125 -6.484375zm-23.078125 -11.375l23.15625 0q-0.46875 -5.234375 -2.65625 -7.84375q-3.359375 -4.0625 -8.703125 -4.0625q-4.84375 0 -8.15625 3.25q-3.296875 3.234375 -3.640625 8.65625zm45.664062 24.734375l-6.53125 0l0 -57.265625l7.03125 0l0 20.421875q4.453125 -5.578125 11.375 -5.578125q3.828125 0 7.234375 1.546875q3.421875 1.53125 5.625 4.328125q2.21875 2.796875 3.46875 6.75q1.25 3.9375 1.25 8.421875q0 10.671875 -5.28125 16.5q-5.265625 5.8125 -12.65625 5.8125q-7.34375 0 -11.515625 -6.140625l0 5.203125zm-0.078125 -21.0625q0 7.46875 2.03125 10.78125q3.3125 5.4375 8.984375 5.4375q4.609375 0 7.96875 -4.0q3.359375 -4.015625 3.359375 -11.9375q0 -8.125 -3.234375 -11.984375q-3.21875 -3.875 -7.78125 -3.875q-4.609375 0 -7.96875 4.0q-3.359375 4.0 -3.359375 11.578125zm50.492188 21.0625l22.0 -57.265625l8.171875 0l23.43753 57.265625l-8.640625 0l-6.671875 -17.34375l-23.953156 0l-6.28125 17.34375l-8.0625 0zm16.53125 -23.515625l19.421906 0l-5.9844055 -15.859375q-2.734375 -7.234375 -4.0625 -11.875q-1.09375 5.5 -3.078125 10.9375l-6.296875 16.796875zm42.234406 39.421875l0 -57.390625l6.40625 0l0 5.390625q2.265625 -3.171875 5.109375 -4.75q2.859375 -1.578125 6.921875 -1.578125q5.3125 0 9.375 2.734375q4.0625 2.734375 6.125 7.71875q2.078125 4.96875 2.078125 10.90625q0 6.375 -2.296875 11.46875q-2.28125 5.09375 -6.640625 7.8125q-4.34375 2.71875 -9.15625 2.71875q-3.515625 0 -6.3125 -1.484375q-2.78125 -1.484375 -4.578125 -3.75l0 20.203125l-7.03125 0zm6.359375 -36.421875q0 8.015625 3.234375 11.84375q3.25 3.828125 7.859375 3.828125q4.6875 0 8.03125 -3.96875q3.34375 -3.96875 3.34375 -12.28125q0 -7.9375 -3.265625 -11.875q-3.265625 -3.953125 -7.796875 -3.953125q-4.484375 0 -7.953125 4.203125q-3.453125 4.203125 -3.453125 12.203125zm38.132812 36.421875l0 -57.390625l6.40625 0l0 5.390625q2.265625 -3.171875 5.109375 -4.75q2.859375 -1.578125 6.921875 -1.578125q5.3125 0 9.375 2.734375q4.0625 2.734375 6.125 7.71875q2.078125 4.96875 2.078125 10.90625q0 6.375 -2.296875 11.46875q-2.28125 5.09375 -6.640625 7.8125q-4.34375 2.71875 -9.15625 2.71875q-3.515625 0 -6.3125 -1.484375q-2.78125 -1.484375 -4.578125 -3.75l0 20.203125l-7.03125 0zm6.359375 -36.421875q0 8.015625 3.234375 11.84375q3.25 3.828125 7.859375 3.828125q4.6875 0 8.03125 -3.96875q3.34375 -3.96875 3.34375 -12.28125q0 -7.9375 -3.265625 -11.875q-3.265625 -3.953125 -7.796875 -3.953125q-4.484375 0 -7.953125 4.203125q-3.453125 4.203125 -3.453125 12.203125z" fill-rule="nonzero"/></g></svg>